<?xml version="1.0" encoding="UTF-8" standalone="no"?>
<svg width="100%" height="100%" viewBox="0 0 1024 1024" version="1.1" xmlns="http://www.w3.org/2000/svg" xmlns:xlink="http://www.w3.org/1999/xlink" xml:space="preserve" xmlns:serif="http://www.serif.com/" style="fill-rule:evenodd;clip-rule:evenodd;stroke-linecap:round;stroke-linejoin:round;stroke-miterlimit:0;">
    <path d="M1024,180L1024,844C1024,943.345 943.345,1024 844,1024L180,1024C80.655,1024 0,943.345 0,844L0,180C0,80.655 80.655,0 180,0L844,0C943.345,0 1024,80.655 1024,180Z" style="fill-opacity:0.88;"/>
    <g transform="matrix(1,0,0,1,0,48.9296)">
        <path d="M525.738,363.708L904.136,362.067" style="fill:none;stroke:white;stroke-width:64px;"/>
    </g>
    <g transform="matrix(-0.000613262,-1,1,-0.000613262,14.2837,1010.34)">
        <g transform="matrix(1.09947,-3.13313e-19,-2.01786e-19,0.976537,31.328,-66.7423)">
            <path d="M125.239,504.563L622.279,323.542L601.569,255.659L539.439,278.287L518.729,210.404L705.118,142.521L725.828,210.404L663.698,233.032L746.538,504.563L674.053,504.563L642.989,391.425L338.13,505.409L125.239,504.563Z" style="fill:white;stroke:white;stroke-width:28.85px;"/>
        </g>
        <g transform="matrix(1.34902,0,0,0.898816,-210.626,51.8063)">
            <path d="M815.156,512L815.156,815.579C815.156,880.139 780.234,932.553 737.22,932.553L334.114,932.553C291.1,932.553 256.178,880.139 256.178,815.579L256.178,512L815.156,512Z" style="fill:none;stroke:white;stroke-width:55.83px;stroke-miterlimit:1.5;"/>
        </g>
    </g>
    <path d="M762.141,412.638L762.864,497.938" style="fill:none;stroke:white;stroke-width:64px;"/>
</svg>
